####
#
# OBJ File Generated by Meshlab
#
####
# Object MBRFA30-2-P6.obj
#
# Vertices: 590
# Faces: 1188
#
####
mtllib MBRFA30-2-P6.mtl
vn 5.270823 -2.342031 -1.412296
v -0.001188 -0.008729 0.000318
vn 3.008586 -2.879798 0.806151
v -0.001932 -0.009000 -0.000518
vn -0.000089 1.616124 -6.031222
v -0.000000 0.003365 -0.012557
vn 0.000010 -1.616096 6.031227
v -0.000000 -0.003365 0.012557
vn -2.100867 3.143609 -3.507222
v 0.000869 -0.002859 0.000869
vn -0.000004 -2.081737 -5.485114
v 0.000000 0.001500 -0.009000
vn 2.100871 3.143613 -3.507208
v -0.000869 -0.002859 0.000869
vn -0.000006 -2.342011 5.456744
v 0.000000 -0.008729 -0.001230
vn -5.551062 -1.752978 -1.135837
v 0.001732 -0.013868 0.001000
vn 0.000004 2.081737 -5.485114
v -0.000000 -0.001500 -0.009000
vn -2.010803 -5.485114 0.538793
v 0.001449 -0.009000 -0.000388
vn -3.403387 -3.114717 -0.000000
v -0.005000 0.003000 -0.000000
vn 3.403387 3.114718 0.000000
v 0.005000 -0.003000 0.000000
vn 3.008586 -0.806151 -2.879798
v -0.001932 0.000518 -0.009000
vn 5.551061 -1.752980 -1.135843
v -0.001732 -0.013868 0.001000
vn -1.412291 -2.342026 5.270828
v 0.000318 -0.008729 -0.001188
vn 1.412302 -2.342027 5.270826
v -0.000318 -0.008729 -0.001188
vn -1.880676 2.817297 -3.217172
v 0.000518 -0.001932 -0.012814
vn -5.270829 1.412291 -2.342026
v 0.001188 -0.000318 -0.008729
vn 2.010807 -5.485112 0.538790
v -0.001449 -0.009000 -0.000388
vn -3.008586 0.806151 -2.879798
v 0.001932 -0.000518 -0.009000
vn -3.154182 0.000023 5.393833
v 0.001000 0.000000 0.013268
vn 1.880674 2.817294 -3.217173
v -0.000518 -0.001932 -0.012814
vn 4.454289 4.236234 -1.135107
v -0.001414 0.013123 -0.003516
vn -4.454302 -4.236232 1.135060
v 0.001414 -0.013123 0.003516
vn -0.000000 -2.879787 3.114716
v 0.000000 -0.009000 -0.002000
vn -3.372067 3.372061 -0.000000
v 0.001230 -0.003000 0.000000
vn -3.008586 -0.806151 -2.879798
v 0.001932 0.000518 -0.009000
vn 5.270824 1.412296 -2.342031
v -0.001188 -0.000318 -0.008729
vn 3.154182 -0.000023 5.393833
v -0.001000 0.000000 0.013268
vn -1.040866 -5.485123 -1.802827
v 0.000750 -0.009000 0.001299
vn -3.403401 -1.557360 2.697420
v -0.005000 0.001500 -0.002598
vn 3.403399 1.557362 -2.697421
v 0.005000 -0.001500 0.002598
vn -4.454318 4.236213 -1.135075
v 0.001414 0.013123 -0.003516
vn 4.454303 -4.236231 1.135065
v -0.001414 -0.013123 0.003516
vn 3.008586 0.806151 -2.879798
v -0.001932 -0.000518 -0.009000
vn 3.372065 3.372061 0.000000
v -0.001230 -0.003000 0.000000
vn 1.040866 -5.485123 -1.802827
v -0.000750 -0.009000 0.001299
vn -3.153956 -5.210203 -1.396003
v 0.001000 -0.012816 -0.003434
vn 3.153932 5.210210 1.396033
v -0.001000 0.012816 0.003434
vn 0.000020 5.407508 -3.122020
v -0.000000 0.011258 -0.006500
vn 0.000020 -5.407508 3.122020
v 0.000000 -0.011258 0.006500
vn -5.789495 -1.764226 0.363998
v 0.001932 -0.014278 -0.000518
vn 3.153947 -5.210204 -1.396023
v -0.001000 -0.012816 -0.003434
vn -3.153970 5.210183 1.396056
v 0.001000 0.012816 0.003434
vn -3.403397 -0.806142 3.008585
v -0.005000 0.000776 -0.002898
vn 3.403394 0.806141 -3.008586
v 0.005000 -0.000776 0.002898
vn -4.824089 1.884777 -2.160684
v 0.001414 -0.001414 -0.013400
vn -0.806151 -2.879798 3.008586
v 0.000518 -0.009000 -0.001932
vn -3.403387 3.114718 0.000000
v -0.005000 -0.003000 0.000000
vn 3.403387 -3.114717 0.000000
v 0.005000 0.003000 -0.000000
vn 1.634069 1.560040 -5.822410
v -0.000518 0.003382 -0.012623
vn -1.634027 -1.560065 5.822417
v 0.000518 -0.003382 0.012623
vn 0.806151 -2.879798 3.008586
v -0.000518 -0.009000 -0.001932
vn -1.633968 1.560109 -5.822422
v 0.000518 0.003382 -0.012623
vn 1.634035 -1.560124 5.822401
v -0.000518 -0.003382 0.012623
vn 4.824108 1.884786 -2.160662
v -0.001414 -0.001414 -0.013400
vn 0.753023 -4.226184 3.161123
v -0.000318 0.001188 -0.002727
vn -3.403384 -2.202439 -2.202439
v -0.005000 0.002121 0.002121
vn 3.403384 2.202439 2.202439
v 0.005000 -0.002121 -0.002121
vn 5.789451 -1.764292 0.363915
v -0.001932 -0.014278 -0.000518
vn -0.753023 -4.226184 3.161123
v 0.000318 0.001188 -0.002727
vn -2.728399 -2.342026 4.725665
v 0.000615 -0.008729 -0.001065
vn -5.230936 -3.343018 -0.895725
v 0.001732 -0.013523 -0.003623
vn 5.230933 3.343022 0.895742
v -0.001732 0.013523 0.003623
vn 2.661755 -2.999818 2.933467
v -0.000941 0.000776 -0.002898
vn -2.879799 0.806151 -3.008586
v -0.005000 0.004141 -0.015455
vn 2.879799 -0.806151 3.008586
v 0.005000 -0.004141 0.015455
vn -1.412302 5.270825 -2.342027
v 0.000318 -0.001188 -0.008729
vn 1.412297 5.270829 -2.342022
v -0.000318 -0.001188 -0.008729
vn 2.728395 -2.342022 4.725669
v -0.000615 -0.008729 -0.001065
vn -0.000001 3.163989 -4.318146
v -0.000000 -0.002710 0.001230
vn -5.230967 -2.447219 -2.447230
v 0.001732 -0.009899 -0.009899
vn 5.230968 2.447231 2.447215
v -0.001732 0.009899 0.009899
vn -0.000000 -3.378800 2.960502
v 0.000000 -0.012737 -0.002000
vn -2.661733 -2.999793 2.933478
v 0.000941 0.000776 -0.002898
vn 2.519028 1.182578 -4.413426
v -0.002887 0.004141 -0.015455
vn -2.519028 -1.182578 4.413426
v 0.002887 -0.004141 0.015455
vn -3.403399 1.557361 -2.697420
v -0.005000 -0.001500 0.002598
vn 3.403399 -1.557363 2.697423
v 0.005000 0.001500 -0.002598
vn -2.202440 -2.879810 -2.202440
v 0.001414 -0.009000 0.001414
vn 5.230944 -3.343009 -0.895720
v -0.001732 -0.013523 -0.003623
vn -5.230940 3.343007 0.895751
v 0.001732 0.013523 0.003623
vn -4.725665 -2.342026 -2.728398
v 0.001065 -0.008729 0.000615
vn 2.010807 -0.538790 -5.485112
v -0.001449 0.000388 -0.009000
vn 5.230968 -2.447231 -2.447215
v -0.001732 -0.009899 -0.009899
vn -5.230968 2.447215 2.447232
v 0.001732 0.009899 0.009899
vn -0.000020 -5.407508 -3.122020
v 0.000000 -0.011258 -0.006500
vn -0.000020 5.407508 3.122020
v -0.000000 0.011258 0.006500
vn -4.725664 2.728398 -2.342026
v 0.001065 -0.000615 -0.008729
vn 4.725662 -2.342026 -2.728397
v -0.001065 -0.008729 0.000615
vn 2.202440 -2.879809 -2.202440
v -0.001414 -0.009000 0.001414
vn -3.403394 0.806141 -3.008586
v -0.005000 -0.000776 0.002898
vn 3.403394 -0.806142 3.008585
v 0.005000 0.000776 -0.002898
vn -2.010805 0.538785 -5.485115
v 0.001449 -0.000388 -0.009000
vn -0.753023 3.161123 -4.226185
v 0.000318 -0.002727 0.001188
vn 4.454322 3.101113 -3.101120
v -0.001414 0.009607 -0.009607
vn -4.454322 -3.101120 3.101113
v 0.001414 -0.009607 0.009607
vn -2.010803 -0.538793 -5.485114
v 0.001449 0.000388 -0.009000
vn -0.538793 -5.485114 -2.010803
v 0.000388 -0.009000 0.001449
vn 0.752987 3.161224 -4.225941
v -0.000318 -0.002727 0.001188
vn 4.725664 2.728398 -2.342026
v -0.001065 -0.000615 -0.008729
vn 4.454484 4.385519 0.000017
v -0.001414 0.013586 -0.000000
vn 1.557367 -2.697417 -2.879784
v -0.001000 0.001732 -0.009000
vn 0.538793 -5.485114 -2.010803
v -0.000388 -0.009000 0.001449
vn -2.519032 1.182565 -4.413417
v 0.002887 0.004141 -0.015455
vn 2.519028 -1.182578 4.413426
v -0.002887 -0.004141 0.015455
vn -3.403384 2.202439 2.202439
v -0.005000 -0.002121 -0.002121
vn 3.403384 -2.202439 -2.202439
v 0.005000 0.002121 0.002121
vn 2.010807 0.538790 -5.485112
v -0.001449 -0.000388 -0.009000
vn -4.454322 3.101120 -3.101113
v 0.001414 0.009607 -0.009607
vn 4.454322 -3.101113 3.101120
v -0.001414 -0.009607 0.009607
vn -1.557367 -2.697417 -2.879784
v 0.001000 0.001732 -0.009000
vn -2.879799 -0.806151 3.008586
v -0.005000 -0.004141 0.015455
vn 2.879799 0.806151 -3.008586
v 0.005000 0.004141 -0.015455
vn -1.557367 2.697417 -2.879783
v 0.001000 -0.001732 -0.009000
vn -4.454484 4.385518 -0.000017
v 0.001414 0.013586 -0.000000
vn 2.991742 -1.279493 3.372392
v -0.001188 0.000318 -0.002958
vn -1.467170 3.153381 -3.952900
v 0.000615 -0.002778 0.001065
vn 1.472010 -1.472010 -5.485116
v -0.001061 0.001061 -0.009000
vn 1.557367 2.697417 -2.879784
v -0.001000 -0.001732 -0.009000
vn 1.467175 3.153374 -3.952919
v -0.000615 -0.002778 0.001065
vn 0.000000 -5.485112 -2.081741
v -0.000000 -0.009000 0.001500
vn -2.991739 -1.279491 3.372393
v 0.001188 0.000318 -0.002958
vn -1.472010 -1.472010 -5.485115
v 0.001061 0.001061 -0.009000
vn -1.472010 1.472010 -5.485116
v 0.001061 -0.001061 -0.009000
vn 5.230965 2.447218 -2.447235
v -0.001732 0.009899 -0.009899
vn -5.230968 -2.447231 2.447215
v 0.001732 -0.009899 0.009899
vn 1.472010 1.472010 -5.485116
v -0.001061 -0.001061 -0.009000
vn -1.557367 -2.879784 2.697417
v 0.001000 -0.009000 -0.001732
vn 4.454331 3.798011 -2.192828
v -0.001414 0.011766 -0.006793
vn -4.454335 -3.798001 2.192838
v 0.001414 -0.011766 0.006793
vn 1.802827 -1.040870 -5.485121
v -0.001299 0.000750 -0.009000
vn -3.154020 -4.671329 -2.696988
v 0.001000 -0.011490 -0.006634
vn 3.154019 4.671324 2.696999
v -0.001000 0.011490 0.006634
vn 1.557366 -2.879783 2.697416
v -0.001000 -0.009000 -0.001732
vn -1.880676 -3.217172 -2.817296
v 0.000518 -0.012814 0.001932
vn -5.230965 2.447235 -2.447218
v 0.001732 0.009899 -0.009899
vn 5.230968 -2.447215 2.447232
v -0.001732 -0.009899 0.009899
vn -3.858503 -2.342022 3.858504
v 0.000869 -0.008729 -0.000869
vn -4.454335 3.798001 -2.192838
v 0.001414 0.011766 -0.006793
vn 4.454331 -3.798011 2.192828
v -0.001414 -0.011766 0.006793
vn 5.231069 2.997105 -1.730366
v -0.001732 0.012124 -0.007000
vn -5.231069 -2.997094 1.730386
v 0.001732 -0.012124 0.007000
vn 3.154019 -4.671324 -2.696999
v -0.001000 -0.011490 -0.006634
vn -3.154020 4.671329 2.696988
v 0.001000 0.011490 0.006634
vn -1.802827 1.040870 -5.485121
v 0.001299 -0.000750 -0.009000
vn 1.880626 -3.217188 -2.817363
v -0.000518 -0.012814 0.001932
vn -1.802827 -1.040866 -5.485123
v 0.001299 0.000750 -0.009000
vn 3.858505 -2.342022 3.858505
v -0.000869 -0.008729 -0.000869
vn -4.454484 0.000017 4.385519
v 0.001414 0.000000 0.013586
vn -1.467175 3.952918 3.153373
v 0.000615 -0.001065 -0.002778
vn -2.879799 0.806151 3.008586
v -0.005000 0.004141 0.015455
vn 2.879799 -0.806151 -3.008586
v 0.005000 -0.004141 -0.015455
vn 1.802827 1.040870 -5.485120
v -0.001299 -0.000750 -0.009000
vn -5.231068 2.997093 -1.730391
v 0.001732 0.012124 -0.007000
vn 5.231070 -2.997105 1.730361
v -0.001732 -0.012124 0.007000
vn 0.000000 2.960502 -3.378800
v 0.000000 -0.002000 -0.012737
vn 2.668161 -2.018521 3.373166
v -0.001065 0.000615 -0.002919
vn 1.467175 3.952919 3.153373
v -0.000615 -0.001065 -0.002778
vn 5.789451 -0.363915 -1.764292
v -0.001932 0.000518 -0.014278
vn 4.454484 -0.000017 4.385519
v -0.001414 0.000000 0.013586
vn -2.519028 -1.182578 -4.413426
v 0.002887 -0.004141 -0.015455
vn 2.519031 1.182571 4.413423
v -0.002887 0.004141 0.015455
vn -3.114716 -2.879787 0.000000
v 0.002000 -0.009000 0.000000
vn -2.081737 -5.485114 -0.000004
v 0.001500 -0.009000 0.000000
vn 3.153970 5.210183 -1.396056
v -0.001000 0.012816 -0.003434
vn -3.153948 -5.210203 1.396023
v 0.001000 -0.012816 0.003434
vn -2.668155 -2.018516 3.373167
v 0.001065 0.000615 -0.002919
vn -3.403395 -3.008586 0.806141
v -0.005000 0.002898 -0.000776
vn 3.403394 3.008586 -0.806141
v 0.005000 -0.002898 0.000776
vn -2.100871 3.507208 3.143614
v 0.000869 -0.000869 -0.002859
vn 2.728395 -4.725669 -2.342022
v -0.000615 0.001065 -0.008729
vn -3.153932 5.210210 -1.396033
v 0.001000 0.012816 -0.003434
vn 3.153956 -5.210203 1.396003
v -0.001000 -0.012816 0.003434
vn -5.789495 -0.363998 -1.764226
v 0.001932 0.000518 -0.014278
vn 5.456739 -0.000000 -2.342016
v -0.001230 0.000000 -0.008729
vn -2.728399 -4.725665 -2.342026
v 0.000615 0.001065 -0.008729
vn 2.100871 3.507208 3.143614
v -0.000869 -0.000869 -0.002859
vn 2.081741 -5.485111 -0.000000
v -0.001500 -0.009000 -0.000000
vn 3.114716 -2.879787 -0.000000
v -0.002000 -0.009000 -0.000000
vn -3.858505 -2.342022 -3.858504
v 0.000869 -0.008729 0.000869
vn -2.661733 2.933478 -2.999793
v 0.000941 -0.002898 0.000776
vn -5.456743 0.000006 -2.342011
v 0.001230 0.000000 -0.008729
vn 2.519032 -1.182565 -4.413417
v -0.002887 -0.004141 -0.015455
vn -2.519031 1.182571 4.413423
v 0.002887 0.004141 0.015455
vn 3.858503 -2.342022 -3.858502
v -0.000869 -0.008729 0.000869
vn 3.153915 3.814135 -3.814144
v -0.001000 0.009382 -0.009382
vn -3.153915 -3.814145 3.814135
v 0.001000 -0.009382 0.009382
vn 2.661755 2.933467 -2.999818
v -0.000941 -0.002898 0.000776
vn -2.991742 3.372393 1.279490
v 0.001188 -0.002958 -0.000318
vn -2.879799 -0.806151 -3.008586
v -0.005000 -0.004141 -0.015455
vn 2.879799 0.806151 3.008586
v 0.005000 0.004141 0.015455
vn -3.153915 3.814145 -3.814135
v 0.001000 0.009382 -0.009382
vn 3.153915 -3.814135 3.814144
v -0.001000 -0.009382 0.009382
vn -1.633623 -4.262352 -4.262372
v 0.000518 -0.009241 -0.009241
vn 1.633623 4.262373 4.262352
v -0.000518 0.009241 0.009241
vn 3.154020 4.671329 -2.696988
v -0.001000 0.011490 -0.006634
vn -3.154018 -4.671324 2.696999
v 0.001000 -0.011490 0.006634
vn 2.991742 3.372393 1.279489
v -0.001188 -0.002958 -0.000318
vn -3.403395 -3.008586 -0.806141
v -0.005000 0.002898 0.000776
vn 3.403394 3.008586 0.806141
v 0.005000 -0.002898 -0.000776
vn 1.633623 -4.262373 -4.262352
v -0.000518 -0.009241 -0.009241
vn -1.633623 4.262352 4.262372
v 0.000518 0.009241 0.009241
vn -0.000026 -6.031240 -1.616044
v 0.000000 -0.012557 -0.003365
vn 0.000010 6.031227 1.616096
v -0.000000 0.012557 0.003365
vn -1.557366 -2.879784 -2.697416
v 0.001000 -0.009000 0.001732
vn -3.403396 3.008602 -0.806148
v -0.005000 -0.002898 0.000776
vn 3.403395 -3.008586 0.806141
v 0.005000 0.002898 -0.000776
vn -1.634029 -5.822425 -1.560031
v 0.000518 -0.012623 -0.003382
vn -0.000006 -5.456744 -2.342011
v 0.000000 0.001230 -0.008729
vn 1.634035 5.822401 1.560124
v -0.000518 0.012623 0.003382
vn -3.154018 4.671324 -2.696999
v 0.001000 0.011490 -0.006634
vn 3.154020 -4.671329 2.696988
v -0.001000 -0.011490 0.006634
vn 1.634069 -5.822410 -1.560040
v -0.000518 -0.012623 -0.003382
vn -1.634028 5.822417 1.560065
v 0.000518 0.012623 0.003382
vn 1.557367 -2.879783 -2.697417
v -0.001000 -0.009000 0.001732
vn 3.858505 -3.858505 -2.342022
v -0.000869 0.000869 -0.008729
vn -2.661733 2.933478 2.999793
v 0.000941 -0.002898 -0.000776
vn -0.000000 4.318145 3.163988
v -0.000000 -0.001230 -0.002710
vn -3.858505 -3.858505 -2.342022
v 0.000869 0.000869 -0.008729
vn 2.661733 2.933478 2.999793
v -0.000941 -0.002898 -0.000776
vn 0.806151 -3.008586 -2.879799
v -0.000518 0.001932 -0.009000
vn -0.000004 -5.485115 2.081737
v 0.000000 -0.009000 -0.001500
vn 5.230944 0.895720 -3.343009
v -0.001732 0.003623 -0.013523
vn -5.230944 -0.895759 3.342999
v 0.001732 -0.003623 0.013523
vn -0.806151 -3.008586 -2.879798
v 0.000518 0.001932 -0.009000
vn -2.879797 2.202437 -2.202437
v -0.005000 0.011314 -0.011314
vn 2.879797 -2.202437 2.202438
v 0.005000 -0.011314 0.011314
vn 3.153947 1.396023 -5.210204
v -0.001000 0.003434 -0.012816
vn -3.153970 -1.396056 5.210183
v 0.001000 -0.003434 0.012816
vn -0.806151 3.008586 -2.879799
v 0.000518 -0.001932 -0.009000
vn -4.454335 -2.192838 -3.798001
v 0.001414 -0.006793 -0.011766
vn 4.454331 2.192828 3.798011
v -0.001414 0.006793 0.011766
vn 0.806151 3.008586 -2.879798
v -0.000518 -0.001932 -0.009000
vn 2.519036 3.230840 -3.230839
v -0.002887 0.011314 -0.011314
vn -2.519034 -3.230843 3.230843
v 0.002887 -0.011314 0.011314
vn -3.403394 3.008586 0.806141
v -0.005000 -0.002898 -0.000776
vn 3.403395 -3.008586 -0.806141
v 0.005000 0.002898 0.000776
vn -3.153956 1.396003 -5.210203
v 0.001000 0.003434 -0.012816
vn 3.153933 -1.396033 5.210210
v -0.001000 -0.003434 0.012816
vn -5.230936 0.895725 -3.343018
v 0.001732 0.003623 -0.013523
vn 5.230937 -0.895750 3.343015
v -0.001732 -0.003623 0.013523
vn -4.725668 -2.342022 2.728394
v 0.001065 -0.008729 -0.000615
vn -0.538785 -5.485115 2.010805
v 0.000388 -0.009000 -0.001449
vn 4.454331 -2.192828 -3.798011
v -0.001414 -0.006793 -0.011766
vn -4.454335 2.192838 3.798001
v 0.001414 0.006793 0.011766
vn 0.538793 -5.485114 2.010803
v -0.000388 -0.009000 -0.001449
vn 4.725664 -2.342026 2.728398
v -0.001065 -0.008729 -0.000615
vn -2.202440 -2.879810 2.202440
v 0.001414 -0.009000 -0.001414
vn -0.000000 -4.415198 -4.415197
v -0.000000 -0.009192 -0.009192
vn -0.000000 4.415198 4.415197
v -0.000000 0.009192 0.009192
vn -2.728395 -2.342022 -4.725669
v 0.000615 -0.008729 0.001065
vn -2.519037 3.230840 -3.230839
v 0.002887 0.011314 -0.011314
vn 2.519034 -3.230843 3.230843
v -0.002887 -0.011314 0.011314
vn -0.000000 6.244065 -0.000000
v -0.000000 0.013000 -0.000000
vn -3.403399 -2.697421 1.557362
v -0.005000 0.002598 -0.001500
vn 3.403399 2.697423 -1.557363
v 0.005000 -0.002598 0.001500
vn 2.728395 -2.342022 -4.725670
v -0.000615 -0.008729 0.001065
vn 2.202440 -2.879809 2.202440
v -0.001414 -0.009000 -0.001414
vn -4.454322 -3.101113 -3.101120
v 0.001414 -0.009607 -0.009607
vn 4.454322 3.101120 3.101113
v -0.001414 0.009607 0.009607
vn -2.879797 -2.202437 2.202438
v -0.005000 -0.011314 0.011314
vn 2.879797 2.202437 -2.202438
v 0.005000 0.011314 -0.011314
vn -0.000010 6.031227 -1.616096
v 0.000000 0.012557 -0.003365
vn 0.000089 -6.031222 1.616124
v 0.000000 -0.012557 0.003365
vn 3.114716 0.000000 -2.879787
v -0.002000 0.000000 -0.009000
vn 5.230918 3.460968 -0.000003
v -0.001732 0.014000 -0.000000
vn 2.081741 0.000000 -5.485111
v -0.001500 0.000000 -0.009000
vn 4.454322 -3.101120 -3.101113
v -0.001414 -0.009607 -0.009607
vn -4.454322 3.101113 3.101120
v 0.001414 0.009607 0.009607
vn 4.824090 -1.884777 -2.160684
v -0.001414 0.001414 -0.013400
vn 5.551063 -1.135838 -1.752978
v -0.001732 0.001000 -0.013868
vn -0.806151 -2.879798 -3.008586
v 0.000518 -0.009000 0.001932
vn 0.806151 -2.879798 -3.008586
v -0.000518 -0.009000 0.001932
vn 1.634027 5.822417 -1.560065
v -0.000518 0.012623 -0.003382
vn -1.634069 -5.822410 1.560040
v 0.000518 -0.012623 0.003382
vn -2.081737 0.000004 -5.485115
v 0.001500 0.000000 -0.009000
vn -5.230918 3.460968 0.000003
v 0.001732 0.014000 -0.000000
vn -4.824108 -1.884786 -2.160662
v 0.001414 0.001414 -0.013400
vn -3.114716 -0.000000 -2.879787
v 0.002000 0.000000 -0.009000
vn -1.634035 5.822401 -1.560124
v 0.000518 0.012623 -0.003382
vn 1.633968 -5.822423 1.560109
v -0.000518 -0.012623 0.003382
vn -5.551060 -1.135813 -1.752979
v 0.001732 0.001000 -0.013868
vn 2.697417 -1.557367 -2.879784
v -0.001732 0.001000 -0.009000
vn -1.040870 -5.485121 1.802827
v 0.000750 -0.009000 -0.001299
vn -3.403400 2.697421 -1.557361
v -0.005000 -0.002598 0.001500
vn 3.403399 -2.697420 1.557361
v 0.005000 0.002598 -0.001500
vn 1.040866 -5.485123 1.802826
v -0.000750 -0.009000 -0.001299
vn -1.412302 -2.342027 -5.270825
v 0.000318 -0.008729 0.001188
vn -2.697417 1.557367 -2.879783
v 0.001732 -0.001000 -0.009000
vn -2.879782 3.114716 0.000000
v -0.005000 0.016000 -0.000000
vn 2.879782 -3.114715 -0.000000
v 0.005000 -0.016000 0.000000
vn 1.412302 -2.342027 -5.270824
v -0.000318 -0.008729 0.001188
vn -5.230922 0.000006 3.460962
v 0.001732 0.000000 0.014000
vn -2.668155 3.373167 -2.018516
v 0.001065 -0.002919 0.000615
vn 0.000000 -2.879787 -3.114716
v -0.000000 -0.009000 0.002000
vn -2.697416 -1.557367 -2.879784
v 0.001732 0.001000 -0.009000
vn -2.010805 -5.485115 -0.538785
v 0.001449 -0.009000 0.000388
vn -2.519036 -4.569076 -0.000002
v 0.002887 -0.016000 0.000000
vn 2.519034 4.569079 0.000000
v -0.002887 0.016000 -0.000000
vn 2.668154 3.373168 -2.018516
v -0.001065 -0.002919 0.000615
vn 2.697416 1.557367 -2.879783
v -0.001732 -0.001000 -0.009000
vn 5.230922 0.000012 3.460962
v -0.001732 0.000000 0.014000
vn -0.000000 -2.342016 -5.456740
v -0.000000 -0.008729 0.001230
vn -5.551062 1.135838 -1.752978
v 0.001732 -0.001000 -0.013868
vn 2.010807 -5.485112 -0.538790
v -0.001449 -0.009000 0.000388
vn -0.000000 -3.114716 -2.879787
v 0.000000 0.002000 -0.009000
vn 5.230941 3.343007 -0.895751
v -0.001732 0.013523 -0.003623
vn -5.230944 -3.343009 0.895720
v 0.001732 -0.013523 0.003623
vn 0.000000 3.114716 -2.879787
v -0.000000 -0.002000 -0.009000
vn 2.519037 -4.569075 -0.000000
v -0.002887 -0.016000 0.000000
vn -2.519034 4.569079 0.000000
v 0.002887 0.016000 -0.000000
vn -2.879790 2.697423 -1.557358
v -0.005000 0.013856 -0.008000
vn 2.879790 -2.697423 1.557358
v 0.005000 -0.013856 0.008000
vn 5.551060 1.135813 -1.752979
v -0.001732 -0.001000 -0.013868
vn -3.403394 -0.806141 -3.008586
v -0.005000 0.000776 0.002898
vn 3.403396 0.806149 3.008603
v 0.005000 -0.000776 -0.002898
vn -2.879782 -3.114715 0.000000
v -0.005000 -0.016000 0.000000
vn 2.879782 3.114715 -0.000000
v 0.005000 0.016000 -0.000000
vn 2.519025 3.956959 -2.284555
v -0.002887 0.013856 -0.008000
vn -2.519023 -3.956962 2.284554
v 0.002887 -0.013856 0.008000
vn -4.454303 -1.135060 -4.236233
v 0.001414 -0.003516 -0.013123
vn 4.454289 1.135107 4.236234
v -0.001414 0.003516 0.013123
vn -2.879797 2.202437 2.202438
v -0.005000 0.011314 0.011314
vn 2.879797 -2.202438 -2.202438
v 0.005000 -0.011314 -0.011314
vn -5.230933 3.343023 -0.895742
v 0.001732 0.013523 -0.003623
vn 5.230946 -3.342999 0.895743
v -0.001732 -0.013523 0.003623
vn -0.000020 3.122020 -5.407508
v -0.000000 0.006500 -0.011258
vn -0.000020 -3.122020 5.407508
v 0.000000 -0.006500 0.011258
vn -5.270825 -2.342027 1.412302
v 0.001188 -0.008729 -0.000318
vn 0.000078 -3.378801 -2.960591
v 0.000000 -0.012737 0.002000
vn -2.991741 1.279493 3.372392
v 0.001188 -0.000318 -0.002958
vn -2.519035 -3.230843 -3.230839
v 0.002887 -0.011314 -0.011314
vn 2.519034 3.230843 3.230843
v -0.002887 0.011314 0.011314
vn 1.633361 6.027953 -0.000051
v -0.000518 0.013068 -0.000000
vn 4.454303 -1.135065 -4.236231
v -0.001414 -0.003516 -0.013123
vn -4.454318 1.135075 4.236212
v 0.001414 0.003516 0.013123
vn 4.454303 1.135060 -4.236233
v -0.001414 0.003516 -0.013123
vn -4.454290 -1.135107 4.236233
v 0.001414 -0.003516 0.013123
vn -2.661755 2.999818 2.933468
v 0.000941 -0.000776 -0.002898
vn 5.270823 -2.342031 1.412296
v -0.001188 -0.008729 -0.000318
vn -1.633362 6.027953 0.000051
v 0.000518 0.013068 -0.000000
vn -3.008586 -2.879798 -0.806151
v 0.001932 -0.009000 0.000518
vn 2.991741 1.279493 3.372392
v -0.001188 -0.000318 -0.002958
vn -3.403399 -2.697420 -1.557361
v -0.005000 0.002598 0.001500
vn 3.403399 2.697423 1.557363
v 0.005000 -0.002598 -0.001500
vn 2.661754 2.999818 2.933467
v -0.000941 -0.000776 -0.002898
vn -2.519025 3.956959 -2.284555
v 0.002887 0.013856 -0.008000
vn 2.519023 -3.956962 2.284554
v -0.002887 -0.013856 0.008000
vn -4.454303 1.135064 -4.236230
v 0.001414 0.003516 -0.013123
vn 4.454319 -1.135075 4.236212
v -0.001414 -0.003516 0.013123
vn 5.231067 1.730391 -2.997094
v -0.001732 0.007000 -0.012124
vn -5.231071 -1.730361 2.997105
v 0.001732 -0.007000 0.012124
vn 1.633623 4.262352 -4.262373
v -0.000518 0.009241 -0.009241
vn -1.633623 -4.262372 4.262352
v 0.000518 -0.009241 0.009241
vn -2.879790 -2.697423 1.557358
v -0.005000 -0.013856 0.008000
vn 2.879790 2.697423 -1.557358
v 0.005000 0.013856 -0.008000
vn -1.633623 4.262372 -4.262352
v 0.000518 0.009241 -0.009241
vn 1.633623 -4.262352 4.262373
v -0.000518 -0.009241 0.009241
vn 3.008586 -2.879799 -0.806151
v -0.001932 -0.009000 0.000518
vn 2.519034 -3.230843 -3.230843
v -0.002887 -0.011314 -0.011314
vn -2.519034 3.230843 3.230843
v 0.002887 0.011314 0.011314
vn -3.403395 0.806149 3.008602
v -0.005000 -0.000776 -0.002898
vn 3.403394 -0.806141 -3.008586
v 0.005000 0.000776 0.002898
vn -5.231069 1.730366 -2.997105
v 0.001732 0.007000 -0.012124
vn 5.231068 -1.730386 2.997093
v -0.001732 -0.007000 0.012124
vn -2.728395 4.725669 -2.342022
v 0.000615 -0.001065 -0.008729
vn -2.879797 -2.202437 -2.202438
v -0.005000 -0.011314 -0.011314
vn 2.879797 2.202437 2.202437
v 0.005000 0.011314 0.011314
vn 0.000000 3.163990 4.318146
v 0.000000 -0.002710 -0.001230
vn -1.472010 -5.485116 1.472010
v 0.001061 -0.009000 -0.001061
vn 2.728395 4.725671 -2.342022
v -0.000615 -0.001065 -0.008729
vn 3.527773 -2.432282 -2.782160
v -0.001000 0.001732 -0.013040
vn -0.000000 4.415197 -4.415197
v 0.000000 0.009192 -0.009192
vn -0.000000 -4.415198 4.415197
v -0.000000 -0.009192 0.009192
vn 1.472010 -5.485116 1.472010
v -0.001061 -0.009000 -0.001061
vn 1.467170 -3.952900 3.153381
v -0.000615 0.001065 -0.002778
vn -3.527743 -2.432249 -2.782179
v 0.001000 0.001732 -0.013040
vn -1.467170 -3.952900 3.153381
v 0.000615 0.001065 -0.002778
vn -3.403399 2.697423 1.557363
v -0.005000 -0.002598 -0.001500
vn 3.403399 -2.697421 -1.557362
v 0.005000 0.002598 0.001500
vn -2.697416 -2.879784 1.557367
v 0.001732 -0.009000 -0.001000
vn 0.000000 -4.318146 3.163990
v 0.000000 0.001230 -0.002710
vn 0.000026 -1.616044 -6.031241
v -0.000000 -0.003365 -0.012557
vn -0.000010 1.616096 6.031227
v -0.000000 0.003365 0.012557
vn -4.824090 -2.160684 -1.884777
v 0.001414 -0.013400 0.001414
vn -2.879790 1.557358 -2.697423
v -0.005000 0.008000 -0.013856
vn 2.879790 -1.557358 2.697423
v 0.005000 -0.008000 0.013856
vn 1.633831 3.013943 -5.220221
v -0.000518 0.006534 -0.011317
vn -1.633811 -3.013944 5.220229
v 0.000518 -0.006534 0.011317
vn 0.000006 5.456744 -2.342011
v -0.000000 -0.001230 -0.008729
vn 2.697416 -2.879784 1.557367
v -0.001732 -0.009000 -0.001000
vn 4.824109 -2.160662 -1.884786
v -0.001414 -0.013400 0.001414
vn -1.633811 3.013944 -5.220229
v 0.000518 0.006534 -0.011317
vn 1.633831 -3.013943 5.220221
v -0.000518 -0.006534 0.011317
vn 2.519025 2.284555 -3.956959
v -0.002887 0.008000 -0.013856
vn -2.519023 -2.284554 3.956962
v 0.002887 -0.008000 0.013856
vn 1.880676 -2.817297 -3.217172
v -0.000518 0.001932 -0.012814
vn -2.879795 3.008585 0.806150
v -0.005000 0.015455 0.004141
vn 2.879798 -3.008585 -0.806150
v 0.005000 -0.015455 -0.004141
vn -5.231069 -2.997105 -1.730366
v 0.001732 -0.012124 -0.007000
vn 5.231069 2.997093 1.730386
v -0.001732 0.012124 0.007000
vn -3.858505 3.858504 -2.342022
v 0.000869 -0.000869 -0.008729
vn -1.634069 -1.560040 -5.822410
v 0.000518 -0.003382 -0.012623
vn 1.634027 1.560065 5.822417
v -0.000518 0.003382 0.012623
vn -2.668161 2.018521 3.373166
v 0.001065 -0.000615 -0.002919
vn -1.880626 -2.817363 -3.217188
v 0.000518 0.001932 -0.012814
vn 2.879787 0.000000 3.114715
v 0.005000 0.000000 0.016000
vn -2.879787 -0.000000 -3.114715
v -0.005000 0.000000 -0.016000
vn -2.991742 3.372393 -1.279490
v 0.001188 -0.002958 0.000318
vn 1.634029 -1.560031 -5.822425
v -0.000518 -0.003382 -0.012623
vn -1.634035 1.560124 5.822401
v 0.000518 0.003382 0.012623
vn -3.403384 -2.202438 2.202438
v -0.005000 0.002121 -0.002121
vn 3.403384 2.202438 -2.202438
v 0.005000 -0.002121 0.002121
vn 3.858505 3.858505 -2.342022
v -0.000869 -0.000869 -0.008729
vn 1.633811 5.220229 -3.013944
v -0.000518 0.011317 -0.006534
vn -1.633831 -5.220222 3.013944
v 0.000518 -0.011317 0.006534
vn -2.519033 -4.413418 -1.182565
v 0.002887 -0.015455 -0.004141
vn 2.519031 4.413423 1.182571
v -0.002887 0.015455 0.004141
vn 5.270823 -1.412296 -2.342031
v -0.001188 0.000318 -0.008729
vn -0.753023 3.161123 4.226184
v 0.000318 -0.002727 -0.001188
vn 2.668156 2.018515 3.373167
v -0.001065 -0.000615 -0.002919
vn -1.633831 5.220222 -3.013944
v 0.000518 0.011317 -0.006534
vn 1.633811 -5.220229 3.013944
v -0.000518 -0.011317 0.006534
vn 2.519036 -0.000002 -4.569076
v -0.002887 0.000000 -0.016000
vn -2.519031 0.000006 4.569084
v 0.002887 0.000000 0.016000
vn 0.753023 3.161123 4.226184
v -0.000318 -0.002727 -0.001188
vn 2.991742 3.372393 -1.279490
v -0.001188 -0.002958 0.000318
vn 5.231068 -2.997093 -1.730386
v -0.001732 -0.012124 -0.007000
vn -5.231071 2.997104 1.730361
v 0.001732 0.012124 0.007000
vn -3.527773 2.432282 -2.782160
v 0.001000 -0.001732 -0.013040
vn -2.519025 2.284555 -3.956959
v 0.002887 0.008000 -0.013856
vn 2.519023 -2.284554 3.956962
v -0.002887 -0.008000 0.013856
vn -5.270826 -1.412302 -2.342027
v 0.001188 0.000318 -0.008729
vn -5.789451 -1.764292 -0.363915
v 0.001932 -0.014278 0.000518
vn 3.527743 2.432249 -2.782179
v -0.001000 -0.001732 -0.013040
vn -1.633811 -5.220229 -3.013944
v 0.000518 -0.011317 -0.006534
vn 1.633831 5.220222 3.013944
v -0.000518 0.011317 0.006534
vn -1.802827 -5.485120 -1.040870
v 0.001299 -0.009000 0.000750
vn -3.153948 -1.396023 -5.210203
v 0.001000 -0.003434 -0.012816
vn 3.153970 1.396056 5.210183
v -0.001000 0.003434 0.012816
vn -2.879790 -1.557358 2.697423
v -0.005000 -0.008000 0.013856
vn 2.879790 1.557358 -2.697423
v 0.005000 0.008000 -0.013856
vn 1.633831 -5.220222 -3.013944
v -0.000518 -0.011317 -0.006534
vn -1.633811 5.220229 3.013944
v 0.000518 0.011317 0.006534
vn 1.040866 -1.802826 -5.485123
v -0.000750 0.001299 -0.009000
vn 2.519028 -4.413426 -1.182578
v -0.002887 -0.015455 -0.004141
vn -2.519031 4.413423 1.182571
v 0.002887 0.015455 0.004141
vn 4.454335 2.192838 -3.798001
v -0.001414 0.006793 -0.011766
vn -4.454331 -2.192827 3.798011
v 0.001414 -0.006793 0.011766
vn 3.153956 -1.396003 -5.210203
v -0.001000 -0.003434 -0.012816
vn -3.153933 1.396033 5.210210
v 0.001000 0.003434 0.012816
vn 1.802827 -5.485120 -1.040871
v -0.001299 -0.009000 0.000750
vn 5.789451 -1.764292 -0.363915
v -0.001932 -0.014278 0.000518
vn -2.519036 0.000002 -4.569076
v 0.002887 0.000000 -0.016000
vn 2.519031 0.000006 4.569085
v -0.002887 0.000000 0.016000
vn -2.879797 3.008586 -0.806151
v -0.005000 0.015455 -0.004141
vn 2.879795 -3.008586 0.806151
v 0.005000 -0.015455 0.004141
vn -2.668154 3.373168 2.018516
v 0.001065 -0.002919 -0.000615
vn -1.040870 -1.802827 -5.485121
v 0.000750 0.001299 -0.009000
vn -1.040866 1.802827 -5.485123
v 0.000750 -0.001299 -0.009000
vn -2.879798 -3.008586 -0.806150
v -0.005000 -0.015455 -0.004141
vn 2.879795 3.008586 0.806151
v 0.005000 0.015455 0.004141
vn -2.879790 1.557358 2.697423
v -0.005000 0.008000 0.013856
vn 2.879790 -1.557358 -2.697423
v 0.005000 -0.008000 -0.013856
vn -4.454331 2.192827 -3.798011
v 0.001414 0.006793 -0.011766
vn 4.454335 -2.192838 3.798001
v -0.001414 -0.006793 0.011766
vn -2.879787 0.000000 3.114715
v -0.005000 0.000000 0.016000
vn 2.879787 0.000000 -3.114715
v 0.005000 0.000000 -0.016000
vn 2.519031 4.413423 -1.182571
v -0.002887 0.015455 -0.004141
vn -2.519028 -4.413426 1.182578
v 0.002887 -0.015455 0.004141
vn 2.668154 3.373167 2.018516
v -0.001065 -0.002919 -0.000615
vn 1.040866 1.802826 -5.485123
v -0.000750 -0.001299 -0.009000
vn -5.456743 -2.342011 -0.000006
v 0.001230 -0.008729 0.000000
vn -3.403384 2.202439 -2.202439
v -0.005000 -0.002121 0.002121
vn 3.403384 -2.202439 2.202439
v 0.005000 0.002121 -0.002121
vn 3.403386 -0.000000 -3.114717
v 0.005000 0.000000 0.003000
vn -3.403386 -0.000001 3.114721
v -0.005000 0.000000 -0.003000
vn -4.454303 -4.236230 -1.135064
v 0.001414 -0.013123 -0.003516
vn 4.454319 4.236212 1.135075
v -0.001414 0.013123 0.003516
vn 2.202440 -2.202440 -2.879810
v -0.001414 0.001414 -0.009000
vn 2.100878 -3.507219 3.143610
v -0.000869 0.000869 -0.002859
vn 3.154183 5.393834 0.000023
v -0.001000 0.013268 -0.000000
vn -2.519023 -2.284554 -3.956962
v 0.002887 -0.008000 -0.013856
vn 2.519023 2.284554 3.956962
v -0.002887 0.008000 0.013856
vn -5.772649 -1.926727 0.000016
v 0.002000 -0.014464 0.000000
vn 1.412302 -5.270826 -2.342027
v -0.000318 0.001188 -0.008729
vn -2.100867 -3.507222 3.143609
v 0.000869 0.000869 -0.002859
vn 5.456739 -2.342016 -0.000000
v -0.001230 -0.008729 -0.000000
vn -2.879790 2.697423 1.557358
v -0.005000 0.013856 0.008000
vn 2.879790 -2.697423 -1.557358
v 0.005000 -0.013856 -0.008000
vn -2.202440 2.202440 -2.879809
v 0.001414 -0.001414 -0.009000
vn -1.412291 -5.270828 -2.342026
v 0.000318 0.001188 -0.008729
vn 5.772649 0.000016 -1.926727
v -0.002000 -0.000000 -0.014464
vn -3.154183 5.393834 -0.000023
v 0.001000 0.013268 -0.000000
vn 4.454303 -4.236233 -1.135060
v -0.001414 -0.013123 -0.003516
vn -4.454290 4.236233 1.135107
v 0.001414 0.013123 0.003516
vn -2.202440 -2.202440 -2.879810
v 0.001414 0.001414 -0.009000
vn -0.752987 4.225941 3.161224
v 0.000318 -0.001188 -0.002727
vn 0.752987 4.225941 3.161224
v -0.000318 -0.001188 -0.002727
vn 3.372060 0.000000 3.372062
v -0.001230 -0.000000 -0.003000
vn -2.519025 -3.956959 -2.284555
v 0.002887 -0.013856 -0.008000
vn 2.519023 3.956962 2.284554
v -0.002887 0.013856 0.008000
vn -3.527743 -2.782179 2.432249
v 0.001000 -0.013040 -0.001732
vn 5.772643 -1.926735 0.000000
v -0.002000 -0.014464 0.000000
vn -2.519031 4.413423 -1.182571
v 0.002887 0.015455 -0.004141
vn 2.519028 -4.413426 1.182578
v -0.002887 -0.015455 0.004141
vn 2.202440 2.202440 -2.879809
v -0.001414 -0.001414 -0.009000
vn -5.231069 -1.730386 -2.997093
v 0.001732 -0.007000 -0.012124
vn 5.231071 1.730361 2.997105
v -0.001732 0.007000 0.012124
vn -5.551060 -1.752979 1.135813
v 0.001732 -0.013868 -0.001000
vn -3.372061 0.000000 3.372062
v 0.001230 -0.000000 -0.003000
vn -5.772648 -0.000016 -1.926727
v 0.002000 0.000000 -0.014464
vn 2.519023 -2.284554 -3.956962
v -0.002887 -0.008000 -0.013856
vn -2.519023 2.284554 3.956962
v 0.002887 0.008000 0.013856
vn 3.527773 -2.782160 2.432282
v -0.001000 -0.013040 -0.001732
vn 4.725664 -2.728398 -2.342026
v -0.001065 0.000615 -0.008729
vn -0.000078 -2.960591 -3.378801
v -0.000000 0.002000 -0.012737
vn -2.879795 -3.008586 0.806151
v -0.005000 -0.015455 0.004141
vn 2.879797 3.008586 -0.806151
v 0.005000 0.015455 -0.004141
vn -1.802827 -5.485124 1.040866
v 0.001299 -0.009000 -0.000750
vn -2.879790 -1.557358 -2.697423
v -0.005000 -0.008000 -0.013856
vn 2.879790 1.557358 2.697423
v 0.005000 0.008000 0.013856
vn -4.725669 -2.728395 -2.342022
v 0.001065 0.000615 -0.008729
vn 5.231070 -1.730361 -2.997105
v -0.001732 -0.007000 -0.012124
vn -5.231070 1.730386 2.997093
v 0.001732 0.007000 0.012124
vn 5.551062 -1.752978 1.135837
v -0.001732 -0.013868 -0.001000
vn 0.000020 -3.122020 -5.407508
v -0.000000 -0.006500 -0.011258
vn 0.000020 3.122020 5.407508
v -0.000000 0.006500 0.011258
vn -3.403386 0.000000 -3.114717
v -0.005000 0.000000 0.003000
vn 3.403385 0.000001 3.114721
v 0.005000 0.000000 -0.003000
vn 2.519023 -3.956962 -2.284554
v -0.002887 -0.013856 -0.008000
vn -2.519023 3.956962 2.284554
v 0.002887 0.013856 0.008000
vn 1.802827 -5.485120 1.040870
v -0.001299 -0.009000 -0.000750
vn -5.789451 0.363915 -1.764292
v 0.001932 -0.000518 -0.014278
vn -2.879790 -2.697423 -1.557358
v -0.005000 -0.013856 -0.008000
vn 2.879790 2.697423 1.557358
v 0.005000 0.013856 0.008000
vn -3.154018 -2.696999 -4.671324
v 0.001000 -0.006634 -0.011490
vn 3.154020 2.696988 4.671329
v -0.001000 0.006634 0.011490
vn -3.153915 -3.814135 -3.814144
v 0.001000 -0.009382 -0.009382
vn 3.153915 3.814145 3.814135
v -0.001000 0.009382 0.009382
vn 5.789495 0.363998 -1.764226
v -0.001932 -0.000518 -0.014278
vn -5.230944 -0.895720 -3.343009
v 0.001732 -0.003623 -0.013523
vn 5.230940 0.895751 3.343007
v -0.001732 0.003623 0.013523
vn -1.633831 -3.013943 -5.220222
v 0.000518 -0.006534 -0.011317
vn 1.633811 3.013944 5.220229
v -0.000518 0.006534 0.011317
vn 3.154020 -2.696988 -4.671329
v -0.001000 -0.006634 -0.011490
vn -3.154018 2.696999 4.671324
v 0.001000 0.006634 0.011490
vn 3.153915 -3.814145 -3.814135
v -0.001000 -0.009382 -0.009382
vn -3.153915 3.814135 3.814144
v 0.001000 0.009382 0.009382
vn 1.633811 -3.013944 -5.220229
v -0.000518 -0.006534 -0.011317
vn -1.633831 3.013943 5.220222
v 0.000518 0.006534 0.011317
vn -1.880674 -3.217173 2.817294
v 0.000518 -0.012814 -0.001932
vn 3.154019 2.696999 -4.671324
v -0.001000 0.006634 -0.011490
vn -3.154020 -2.696988 4.671329
v 0.001000 -0.006634 0.011490
vn 5.230936 -0.895725 -3.343018
v -0.001732 -0.003623 -0.013523
vn -5.230933 0.895742 3.343023
v 0.001732 0.003623 0.013523
vn -2.697416 -2.879784 -1.557367
v 0.001732 -0.009000 0.001000
vn 1.880676 -3.217172 2.817296
v -0.000518 -0.012814 -0.001932
vn -1.467170 3.153381 3.952900
v 0.000615 -0.002778 -0.001065
vn 0.538793 -2.010803 -5.485114
v -0.000388 0.001449 -0.009000
vn -3.154020 2.696988 -4.671329
v 0.001000 0.006634 -0.011490
vn 3.154019 -2.696999 4.671324
v -0.001000 -0.006634 0.011490
vn -0.538785 -2.010805 -5.485115
v 0.000388 0.001449 -0.009000
vn 1.467170 3.153381 3.952900
v -0.000615 -0.002778 -0.001065
vn -0.000000 0.000000 6.244065
v 0.000000 0.000000 0.013000
vn -3.403399 -1.557362 -2.697421
v -0.005000 0.001500 0.002598
vn 3.403400 1.557361 2.697421
v 0.005000 -0.001500 -0.002598
vn 2.697416 -2.879783 -1.557367
v -0.001732 -0.009000 0.001000
vn -0.538793 2.010803 -5.485115
v 0.000388 -0.001449 -0.009000
vn 0.538788 2.010801 -5.485117
v -0.000388 -0.001449 -0.009000
vn -3.527773 -2.782160 -2.432282
v 0.001000 -0.013040 0.001732
vn 3.527743 -2.782179 -2.432249
v -0.001000 -0.013040 0.001732
vn -1.472010 -5.485115 -1.472010
v 0.001061 -0.009000 0.001061
vn -4.454331 -3.798011 -2.192827
v 0.001414 -0.011766 -0.006793
vn 4.454335 3.798001 2.192838
v -0.001414 0.011766 0.006793
vn 1.472010 -5.485116 -1.472009
v -0.001061 -0.009000 0.001061
vn -1.633362 -0.000051 6.027953
v 0.000518 0.000000 0.013068
vn -4.824109 -2.160662 1.884786
v 0.001414 -0.013400 -0.001414
vn 1.633361 0.000051 6.027953
v -0.000518 0.000000 0.013068
vn 4.454335 -3.798001 -2.192838
v -0.001414 -0.011766 -0.006793
vn -4.454331 3.798011 2.192827
v 0.001414 0.011766 0.006793
vn -2.100867 3.143609 3.507222
v 0.000869 -0.002859 -0.000869
vn -3.008586 -2.879799 0.806151
v 0.001932 -0.009000 -0.000518
vn 2.100867 3.143609 3.507222
v -0.000869 -0.002859 -0.000869
vn 4.824090 -2.160684 1.884777
v -0.001414 -0.013400 -0.001414
vn -5.270829 -2.342026 -1.412291
v 0.001188 -0.008729 0.000318
vn -3.403400 1.557361 2.697420
v -0.005000 -0.001500 -0.002598
vn 3.403399 -1.557361 -2.697420
v 0.005000 0.001500 0.002598
# 590 vertices, 0 vertices normals
usemtl Material

f 410//410 192//192 67//67
f 67//67 192//192 523//523
f 67//67 523//523 388//388
f 388//388 523//523 369//369
f 388//388 369//369 228//228
f 228//228 369//369 537//537
f 228//228 537//537 314//314
f 314//314 537//537 463//463
f 314//314 463//463 458//458
f 458//458 463//463 479//479
f 458//458 479//479 46//46
f 463//463 319//319 50//50
f 463//463 50//50 238//238
f 463//463 238//238 381//381
f 463//463 381//381 108//108
f 463//463 108//108 589//589
f 463//463 589//589 364//364
f 463//463 364//364 479//479
f 319//319 520//520 93//93
f 319//319 93//93 79//79
f 319//319 79//79 476//476
f 319//319 476//476 287//287
f 319//319 287//287 208//208
f 319//319 208//208 50//50
f 469//469 153//153 114//114
f 114//114 153//153 465//465
f 114//114 465//465 443//443
f 443//443 465//465 325//325
f 443//443 325//325 263//263
f 263//263 325//325 491//491
f 263//263 491//491 357//357
f 357//357 491//491 400//400
f 357//357 400//400 520//520
f 520//520 400//400 531//531
f 520//520 531//531 93//93
f 458//458 46//46 32//32
f 458//458 32//32 414//414
f 458//458 414//414 257//257
f 458//458 257//257 170//170
f 458//458 170//170 292//292
f 292//292 170//170 12//12
f 292//292 12//12 201//201
f 292//292 201//201 346//346
f 292//292 346//346 59//59
f 292//292 59//59 568//568
f 292//292 568//568 317//317
f 292//292 317//317 400//400
f 531//531 400//400 317//317
f 470//470 115//115 154//154
f 154//154 115//115 444//444
f 154//154 444//444 466//466
f 466//466 444//444 264//264
f 466//466 264//264 326//326
f 326//326 264//264 358//358
f 326//326 358//358 492//492
f 492//492 358//358 521//521
f 492//492 521//521 401//401
f 401//401 521//521 532//532
f 401//401 532//532 318//318
f 521//521 320//320 209//209
f 521//521 209//209 288//288
f 521//521 288//288 477//477
f 521//521 477//477 80//80
f 521//521 80//80 94//94
f 521//521 94//94 532//532
f 320//320 464//464 365//365
f 320//320 365//365 590//590
f 320//320 590//590 109//109
f 320//320 109//109 382//382
f 320//320 382//382 239//239
f 320//320 239//239 51//51
f 320//320 51//51 209//209
f 409//409 68//68 193//193
f 193//193 68//68 389//389
f 193//193 389//389 524//524
f 524//524 389//389 229//229
f 524//524 229//229 370//370
f 370//370 229//229 315//315
f 370//370 315//315 538//538
f 538//538 315//315 459//459
f 538//538 459//459 464//464
f 464//464 459//459 478//478
f 464//464 478//478 365//365
f 401//401 318//318 569//569
f 401//401 569//569 60//60
f 401//401 60//60 347//347
f 401//401 347//347 202//202
f 401//401 202//202 13//13
f 401//401 13//13 293//293
f 293//293 13//13 171//171
f 293//293 171//171 258//258
f 293//293 258//258 415//415
f 293//293 415//415 33//33
f 293//293 33//33 47//47
f 293//293 47//47 459//459
f 478//478 459//459 47//47
f 560//560 215//215 205//205
f 560//560 205//205 75//75
f 202//202 219//219 460//460
f 202//202 460//460 191//191
f 202//202 191//191 27//27
f 202//202 27//27 13//13
f 238//238 50//50 37//37
f 238//238 37//37 200//200
f 238//238 200//200 473//473
f 238//238 473//473 222//222
f 342//342 490//490 180//180
f 342//342 180//180 20//20
f 342//342 200//200 37//37
f 342//342 37//37 490//490
f 181//181 506//506 61//61
f 181//181 61//61 2//2
f 535//535 249//249 342//342
f 535//535 342//342 20//20
f 249//249 473//473 200//200
f 249//249 200//200 342//342
f 393//393 2//2 61//61
f 393//393 61//61 528//528
f 249//249 535//535 377//377
f 249//249 377//377 150//150
f 393//393 528//528 587//587
f 393//393 587//587 260//260
f 150//150 586//586 222//222
f 150//150 222//222 473//473
f 150//150 473//473 249//249
f 377//377 289//289 71//71
f 377//377 71//71 150//150
f 71//71 566//566 586//586
f 71//71 586//586 150//150
f 517//517 136//136 260//260
f 517//517 260//260 587//587
f 248//248 17//17 71//71
f 248//248 71//71 289//289
f 136//136 517//517 560//560
f 136//136 560//560 54//54
f 566//566 71//71 17//17
f 566//566 17//17 428//428
f 17//17 248//248 224//224
f 17//17 224//224 8//8
f 54//54 560//560 75//75
f 54//54 75//75 26//26
f 428//428 17//17 8//8
f 428//428 8//8 371//371
f 8//8 224//224 245//245
f 8//8 245//245 16//16
f 554//554 49//49 26//26
f 554//554 26//26 75//75
f 16//16 422//422 371//371
f 16//16 371//371 8//8
f 16//16 245//245 286//286
f 16//16 286//286 63//63
f 63//63 561//561 422//422
f 63//63 422//422 16//16
f 505//505 130//130 49//49
f 505//505 49//49 554//554
f 63//63 286//286 372//372
f 63//63 372//372 140//140
f 561//561 63//63 140//140
f 561//561 140//140 584//584
f 580//580 250//250 130//130
f 580//580 130//130 505//505
f 140//140 372//372 522//522
f 140//140 522//522 244//244
f 219//219 584//584 140//140
f 219//219 140//140 244//244
f 219//219 244//244 460//460
f 250//250 580//580 512//512
f 250//250 512//512 383//383
f 244//244 522//522 11//11
f 244//244 11//11 331//331
f 191//191 460//460 244//244
f 191//191 244//244 331//331
f 383//383 512//512 43//43
f 383//383 43//43 585//585
f 331//331 11//11 166//166
f 331//331 166//166 475//475
f 487//487 165//165 585//585
f 487//487 585//585 43//43
f 191//191 331//331 475//475
f 191//191 475//475 27//27
f 554//554 75//75 205//205
f 554//554 205//205 210//210
f 210//210 39//39 505//505
f 210//210 505//505 554//554
f 44//44 215//215 560//560
f 44//44 560//560 517//517
f 448//448 312//312 319//319
f 448//448 319//319 463//463
f 401//401 293//293 300//300
f 401//401 300//300 419//419
f 587//587 497//497 44//44
f 587//587 44//44 517//517
f 480//480 580//580 505//505
f 480//480 505//505 39//39
f 528//528 82//82 497//497
f 528//528 497//497 587//587
f 64//64 512//512 580//580
f 64//64 580//580 480//480
f 312//312 448//448 82//82
f 312//312 82//82 528//528
f 312//312 528//528 61//61
f 312//312 61//61 506//506
f 419//419 300//300 487//487
f 419//419 487//487 43//43
f 419//419 43//43 512//512
f 419//419 512//512 64//64
f 205//205 215//215 445//445
f 205//205 445//445 88//88
f 347//347 381//381 371//371
f 347//347 371//371 422//422
f 347//347 422//422 561//561
f 347//347 561//561 584//584
f 347//347 584//584 219//219
f 347//347 219//219 202//202
f 381//381 238//238 222//222
f 381//381 222//222 586//586
f 381//381 586//586 566//566
f 381//381 566//566 428//428
f 381//381 428//428 371//371
f 210//210 205//205 88//88
f 210//210 88//88 438//438
f 39//39 210//210 438//438
f 39//39 438//438 134//134
f 215//215 44//44 145//145
f 215//215 145//145 445//445
f 533//533 448//448 463//463
f 533//533 463//463 537//537
f 401//401 419//419 503//503
f 401//401 503//503 492//492
f 44//44 497//497 582//582
f 44//44 582//582 145//145
f 480//480 39//39 134//134
f 480//480 134//134 576//576
f 64//64 480//480 576//576
f 64//64 576//576 402//402
f 497//497 82//82 430//430
f 497//497 430//430 582//582
f 419//419 64//64 402//402
f 419//419 402//402 503//503
f 448//448 533//533 430//430
f 448//448 430//430 82//82
f 438//438 88//88 251//251
f 438//438 251//251 196//196
f 381//381 347//347 60//60
f 381//381 60//60 108//108
f 88//88 445//445 203//203
f 88//88 203//203 251//251
f 134//134 438//438 196//196
f 134//134 196//196 541//541
f 445//445 145//145 550//550
f 445//445 550//550 203//203
f 533//533 537//537 369//369
f 533//533 369//369 362//362
f 492//492 503//503 334//334
f 492//492 334//334 326//326
f 145//145 582//582 270//270
f 145//145 270//270 550//550
f 576//576 134//134 541//541
f 576//576 541//541 261//261
f 582//582 430//430 86//86
f 582//582 86//86 270//270
f 402//402 576//576 261//261
f 402//402 261//261 73//73
f 430//430 533//533 362//362
f 430//430 362//362 86//86
f 503//503 402//402 73//73
f 503//503 73//73 334//334
f 196//196 251//251 529//529
f 196//196 529//529 546//546
f 569//569 589//589 108//108
f 569//569 108//108 60//60
f 251//251 203//203 552//552
f 251//251 552//552 529//529
f 203//203 550//550 548//548
f 203//203 548//548 552//552
f 541//541 196//196 546//546
f 541//541 546//546 539//539
f 362//362 369//369 523//523
f 362//362 523//523 515//515
f 466//466 326//326 334//334
f 466//466 334//334 485//485
f 550//550 270//270 246//246
f 550//550 246//246 548//548
f 261//261 541//541 539//539
f 261//261 539//539 233//233
f 270//270 86//86 526//526
f 270//270 526//526 246//246
f 73//73 261//261 233//233
f 73//73 233//233 510//510
f 334//334 73//73 510//510
f 334//334 510//510 485//485
f 362//362 515//515 526//526
f 362//362 526//526 86//86
f 546//546 529//529 385//385
f 546//546 385//385 405//405
f 364//364 589//589 220//220
f 364//364 220//220 501//501
f 364//364 501//501 160//160
f 364//364 160//160 179//179
f 364//364 179//179 348//348
f 318//318 341//341 172//172
f 318//318 172//172 152//152
f 318//318 152//152 500//500
f 318//318 500//500 220//220
f 318//318 220//220 569//569
f 569//569 220//220 589//589
f 70//70 501//501 220//220
f 70//70 220//220 392//392
f 501//501 70//70 373//373
f 501//501 373//373 160//160
f 160//160 373//373 416//416
f 160//160 416//416 179//179
f 416//416 102//102 423//423
f 416//416 423//423 348//348
f 416//416 348//348 179//179
f 404//404 172//172 341//341
f 404//404 341//341 407//407
f 404//404 407//407 90//90
f 368//368 152//152 172//172
f 368//368 172//172 404//404
f 69//69 500//500 152//152
f 69//69 152//152 368//368
f 500//500 69//69 392//392
f 500//500 392//392 220//220
f 529//529 552//552 412//412
f 529//529 412//412 385//385
f 452//452 412//412 552//552
f 452//452 552//552 548//548
f 405//405 441//441 539//539
f 405//405 539//539 546//546
f 523//523 192//192 185//185
f 523//523 185//185 515//515
f 466//466 485//485 163//163
f 466//466 163//163 154//154
f 233//233 539//539 441//441
f 233//233 441//441 323//323
f 548//548 246//246 337//337
f 548//548 337//337 452//452
f 510//510 233//233 323//323
f 510//510 323//323 544//544
f 246//246 526//526 557//557
f 246//246 557//557 337//337
f 526//526 515//515 185//185
f 526//526 185//185 557//557
f 163//163 485//485 510//510
f 163//163 510//510 544//544
f 23//23 158//158 385//385
f 23//23 385//385 412//412
f 532//532 513//513 333//333
f 532//532 333//333 407//407
f 532//532 407//407 341//341
f 532//532 341//341 318//318
f 479//479 364//364 423//423
f 479//479 423//423 345//345
f 479//479 345//345 502//502
f 423//423 364//364 348//348
f 392//392 10//10 572//572
f 392//392 572//572 70//70
f 311//311 158//158 23//23
f 311//311 23//23 235//235
f 572//572 474//474 373//373
f 572//572 373//373 70//70
f 437//437 121//121 235//235
f 437//437 235//235 23//23
f 373//373 474//474 129//129
f 373//373 129//129 416//416
f 121//121 437//437 57//57
f 121//121 57//57 509//509
f 416//416 129//129 155//155
f 416//416 155//155 102//102
f 316//316 303//303 509//509
f 316//316 509//509 57//57
f 29//29 102//102 155//155
f 29//29 155//155 110//110
f 345//345 423//423 102//102
f 345//345 102//102 29//29
f 543//543 36//36 303//303
f 543//543 303//303 316//316
f 29//29 110//110 269//269
f 29//29 269//269 177//177
f 36//36 543//543 495//495
f 36//36 495//495 267//267
f 177//177 502//502 345//345
f 177//177 345//345 29//29
f 184//184 278//278 95//95
f 184//184 95//95 19//19
f 536//536 21//21 281//281
f 536//536 281//281 514//514
f 184//184 19//19 333//333
f 184//184 333//333 513//513
f 308//308 227//227 223//223
f 223//223 227//227 113//113
f 223//223 113//113 104//104
f 104//104 113//113 6//6
f 104//104 6//6 562//562
f 125//125 461//461 499//499
f 499//499 461//461 565//565
f 499//499 565//565 113//113
f 113//113 565//565 6//6
f 278//278 99//99 28//28
f 28//28 99//99 149//149
f 28//28 149//149 298//298
f 298//298 149//149 125//125
f 298//298 125//125 499//499
f 462//462 126//126 291//291
f 291//291 126//126 147//147
f 291//291 147//147 21//21
f 21//21 147//147 95//95
f 21//21 95//95 281//281
f 281//281 95//95 278//278
f 281//281 278//278 28//28
f 493//493 116//116 10//10
f 493//493 10//10 571//571
f 493//493 571//571 462//462
f 493//493 462//462 291//291
f 482//482 104//104 562//562
f 482//482 562//562 447//447
f 482//482 447//447 120//120
f 482//482 120//120 285//285
f 133//133 85//85 14//14
f 133//133 14//14 285//285
f 133//133 285//285 120//120
f 129//129 303//303 155//155
f 155//155 303//303 36//36
f 155//155 36//36 110//110
f 110//110 36//36 267//267
f 110//110 267//267 269//269
f 269//269 267//267 14//14
f 269//269 14//14 85//85
f 474//474 572//572 509//509
f 474//474 509//509 303//303
f 474//474 303//303 129//129
f 311//311 235//235 232//232
f 232//232 235//235 121//121
f 232//232 121//121 116//116
f 116//116 121//121 509//509
f 116//116 509//509 10//10
f 10//10 509//509 572//572
f 19//19 95//95 147//147
f 19//19 147//147 90//90
f 333//333 19//19 90//90
f 333//333 90//90 407//407
f 21//21 536//536 306//306
f 21//21 306//306 291//291
f 90//90 147//147 126//126
f 90//90 126//126 404//404
f 291//291 306//306 48//48
f 291//291 48//48 493//493
f 404//404 126//126 462//462
f 404//404 462//462 368//368
f 432//432 116//116 493//493
f 432//432 493//493 48//48
f 368//368 462//462 571//571
f 368//368 571//571 69//69
f 116//116 432//432 18//18
f 116//116 18//18 232//232
f 69//69 571//571 10//10
f 69//69 10//10 392//392
f 158//158 311//311 232//232
f 158//158 232//232 18//18
f 385//385 158//158 18//18
f 385//385 18//18 405//405
f 412//412 452//452 437//437
f 412//412 437//437 23//23
f 441//441 405//405 18//18
f 441//441 18//18 432//432
f 192//192 410//410 426//426
f 192//192 426//426 185//185
f 163//163 456//456 470//470
f 163//163 470//470 154//154
f 337//337 57//57 437//437
f 337//337 437//437 452//452
f 48//48 323//323 441//441
f 48//48 441//441 432//432
f 57//57 337//337 557//557
f 57//57 557//557 316//316
f 323//323 48//48 306//306
f 323//323 306//306 544//544
f 456//456 163//163 544//544
f 456//456 544//544 306//306
f 456//456 306//306 536//536
f 456//456 536//536 514//514
f 185//185 426//426 495//495
f 185//185 495//495 543//543
f 185//185 543//543 316//316
f 185//185 316//316 557//557
f 399//399 52//52 3//3
f 399//399 3//3 519//519
f 513//513 532//532 124//124
f 124//124 532//532 94//94
f 124//124 94//94 169//169
f 169//169 94//94 76//76
f 479//479 502//502 118//118
f 479//479 118//118 159//159
f 479//479 159//159 66//66
f 479//479 66//66 46//46
f 421//421 177//177 269//269
f 421//421 269//269 85//85
f 502//502 177//177 421//421
f 502//502 421//421 118//118
f 161//161 14//14 267//267
f 161//161 267//267 495//495
f 421//421 85//85 133//133
f 421//421 133//133 518//518
f 118//118 421//421 518//518
f 118//118 518//518 159//159
f 14//14 161//161 273//273
f 14//14 273//273 285//285
f 518//518 133//133 120//120
f 518//518 120//120 218//218
f 218//218 483//483 66//66
f 218//218 66//66 159//159
f 218//218 159//159 518//518
f 482//482 285//285 273//273
f 482//482 273//273 272//272
f 173//173 218//218 120//120
f 173//173 120//120 447//447
f 374//374 104//104 482//482
f 374//374 482//482 272//272
f 173//173 378//378 483//483
f 173//173 483//483 218//218
f 173//173 447//447 562//562
f 173//173 562//562 488//488
f 399//399 223//223 104//104
f 399//399 104//104 374//374
f 378//378 173//173 488//488
f 378//378 488//488 58//58
f 488//488 562//562 6//6
f 488//488 6//6 211//211
f 519//519 308//308 223//223
f 519//519 223//223 399//399
f 211//211 384//384 58//58
f 211//211 58//58 488//488
f 211//211 6//6 565//565
f 211//211 565//565 494//494
f 308//308 519//519 408//408
f 308//308 408//408 227//227
f 384//384 211//211 494//494
f 384//384 494//494 62//62
f 494//494 565//565 461//461
f 494//494 461//461 178//178
f 227//227 408//408 379//379
f 227//227 379//379 113//113
f 178//178 380//380 62//62
f 178//178 62//62 494//494
f 178//178 461//461 125//125
f 178//178 125//125 221//221
f 380//380 178//178 221//221
f 380//380 221//221 489//489
f 113//113 379//379 280//280
f 113//113 280//280 499//499
f 221//221 125//125 149//149
f 221//221 149//149 525//525
f 221//221 525//525 169//169
f 221//221 169//169 76//76
f 221//221 76//76 489//489
f 284//284 298//298 499//499
f 284//284 499//499 280//280
f 525//525 149//149 99//99
f 525//525 99//99 435//435
f 169//169 525//525 435//435
f 169//169 435//435 124//124
f 176//176 28//28 298//298
f 176//176 298//298 284//284
f 435//435 99//99 278//278
f 435//435 278//278 184//184
f 28//28 176//176 514//514
f 28//28 514//514 281//281
f 124//124 435//435 184//184
f 124//124 184//184 513//513
f 519//519 3//3 55//55
f 519//519 55//55 408//408
f 55//55 240//240 379//379
f 55//55 379//379 408//408
f 230//230 52//52 399//399
f 230//230 399//399 374//374
f 77//77 426//426 410//410
f 77//77 410//410 67//67
f 456//456 106//106 115//115
f 456//456 115//115 470//470
f 351//351 280//280 379//379
f 351//351 379//379 240//240
f 272//272 339//339 230//230
f 272//272 230//230 374//374
f 280//280 351//351 242//242
f 280//280 242//242 284//284
f 339//339 272//272 273//273
f 339//339 273//273 225//225
f 106//106 456//456 514//514
f 106//106 514//514 176//176
f 106//106 176//176 284//284
f 106//106 284//284 242//242
f 426//426 77//77 225//225
f 426//426 225//225 273//273
f 426//426 273//273 161//161
f 426//426 161//161 495//495
f 3//3 52//52 390//390
f 3//3 390//390 329//329
f 80//80 32//32 384//384
f 80//80 384//384 62//62
f 80//80 62//62 380//380
f 80//80 380//380 489//489
f 80//80 489//489 76//76
f 80//80 76//76 94//94
f 32//32 46//46 483//483
f 32//32 483//483 378//378
f 32//32 378//378 58//58
f 32//32 58//58 384//384
f 483//483 46//46 66//66
f 55//55 3//3 329//329
f 55//55 329//329 395//395
f 240//240 55//55 395//395
f 240//240 395//395 563//563
f 52//52 230//230 555//555
f 52//52 555//555 390//390
f 67//67 388//388 397//397
f 67//67 397//397 77//77
f 115//115 106//106 433//433
f 115//115 433//433 444//444
f 351//351 240//240 563//563
f 351//351 563//563 467//467
f 230//230 339//339 450//450
f 230//230 450//450 555//555
f 339//339 225//225 353//353
f 339//339 353//353 450//450
f 242//242 351//351 467//467
f 242//242 467//467 366//366
f 106//106 242//242 366//366
f 106//106 366//366 433//433
f 353//353 225//225 77//77
f 353//353 77//77 397//397
f 395//395 329//329 375//375
f 395//395 375//375 359//359
f 32//32 80//80 477//477
f 32//32 477//477 414//414
f 329//329 390//390 355//355
f 329//329 355//355 375//375
f 390//390 555//555 188//188
f 390//390 188//188 355//355
f 563//563 395//395 359//359
f 563//563 359//359 194//194
f 397//397 388//388 228//228
f 397//397 228//228 236//236
f 444//444 433//433 254//254
f 444//444 254//254 264//264
f 555//555 450//450 97//97
f 555//555 97//97 188//188
f 467//467 563//563 194//194
f 467//467 194//194 111//111
f 366//366 467//467 111//111
f 366//366 111//111 138//138
f 450//450 353//353 127//127
f 450//450 127//127 97//97
f 433//433 366//366 138//138
f 433//433 138//138 254//254
f 127//127 353//353 397//397
f 127//127 397//397 236//236
f 359//359 375//375 41//41
f 359//359 41//41 424//424
f 257//257 414//414 477//477
f 257//257 477//477 288//288
f 375//375 355//355 417//417
f 375//375 417//417 41//41
f 355//355 188//188 198//198
f 355//355 198//198 417//417
f 194//194 359//359 424//424
f 194//194 424//424 213//213
f 321//321 236//236 228//228
f 321//321 228//228 314//314
f 264//264 254//254 349//349
f 264//264 349//349 358//358
f 111//111 194//194 213//213
f 111//111 213//213 141//141
f 188//188 97//97 131//131
f 188//188 131//131 198//198
f 97//97 127//127 143//143
f 97//97 143//143 131//131
f 138//138 111//111 141//141
f 138//138 141//141 156//156
f 127//127 236//236 321//321
f 127//127 321//321 143//143
f 349//349 254//254 138//138
f 349//349 138//138 156//156
f 41//41 417//417 276//276
f 41//41 276//276 265//265
f 170//170 257//257 288//288
f 170//170 288//288 209//209
f 424//424 41//41 265//265
f 424//424 265//265 282//282
f 417//417 198//198 167//167
f 417//417 167//167 276//276
f 213//213 424//424 282//282
f 213//213 282//282 174//174
f 471//471 321//321 314//314
f 471//471 314//314 458//458
f 358//358 349//349 507//507
f 358//358 507//507 521//521
f 198//198 131//131 24//24
f 198//198 24//24 167//167
f 141//141 213//213 174//174
f 141//141 174//174 34//34
f 156//156 141//141 34//34
f 156//156 34//34 327//327
f 131//131 143//143 309//309
f 131//131 309//309 24//24
f 349//349 156//156 327//327
f 349//349 327//327 507//507
f 321//321 471//471 309//309
f 321//321 309//309 143//143
f 265//265 276//276 336//336
f 265//265 336//336 256//256
f 12//12 170//170 209//209
f 12//12 209//209 51//51
f 282//282 265//265 256//256
f 282//282 256//256 343//343
f 174//174 282//282 343//343
f 174//174 343//343 496//496
f 276//276 167//167 484//484
f 276//276 484//484 336//336
f 301//301 471//471 458//458
f 301//301 458//458 292//292
f 521//521 507//507 313//313
f 521//521 313//313 320//320
f 34//34 174//174 496//496
f 34//34 496//496 117//117
f 167//167 24//24 103//103
f 167//167 103//103 484//484
f 24//24 309//309 268//268
f 24//24 268//268 103//103
f 327//327 34//34 117//117
f 327//327 117//117 279//279
f 507//507 327//327 279//279
f 507//507 279//279 313//313
f 268//268 309//309 471//471
f 268//268 471//471 301//301
f 256//256 336//336 212//212
f 256//256 212//212 206//206
f 201//201 12//12 51//51
f 201//201 51//51 239//239
f 343//343 256//256 206//206
f 343//343 206//206 216//216
f 336//336 484//484 40//40
f 336//336 40//40 212//212
f 496//496 343//343 216//216
f 496//496 216//216 45//45
f 400//400 420//420 301//301
f 400//400 301//301 292//292
f 320//320 313//313 449//449
f 320//320 449//449 464//464
f 484//484 103//103 481//481
f 484//484 481//481 40//40
f 117//117 496//496 45//45
f 117//117 45//45 498//498
f 279//279 117//117 498//498
f 279//279 498//498 83//83
f 103//103 268//268 65//65
f 103//103 65//65 481//481
f 268//268 301//301 420//420
f 268//268 420//420 65//65
f 449//449 313//313 279//279
f 449//449 279//279 83//83
f 216//216 206//206 89//89
f 216//216 89//89 446//446
f 346//346 201//201 239//239
f 346//346 239//239 382//382
f 206//206 212//212 439//439
f 206//206 439//439 89//89
f 45//45 216//216 446//446
f 45//45 446//446 146//146
f 212//212 40//40 135//135
f 212//212 135//135 439//439
f 400//400 491//491 504//504
f 400//400 504//504 420//420
f 538//538 464//464 449//449
f 538//538 449//449 534//534
f 40//40 481//481 577//577
f 40//40 577//577 135//135
f 498//498 45//45 146//146
f 498//498 146//146 583//583
f 83//83 498//498 583//583
f 83//83 583//583 431//431
f 481//481 65//65 403//403
f 481//481 403//403 577//577
f 65//65 420//420 504//504
f 65//65 504//504 403//403
f 534//534 449//449 83//83
f 534//534 83//83 431//431
f 446//446 89//89 252//252
f 446//446 252//252 204//204
f 59//59 346//346 382//382
f 59//59 382//382 109//109
f 89//89 439//439 197//197
f 89//89 197//197 252//252
f 439//439 135//135 542//542
f 439//439 542//542 197//197
f 146//146 446//446 204//204
f 146//146 204//204 551//551
f 504//504 491//491 325//325
f 504//504 325//325 335//335
f 370//370 538//538 534//534
f 370//370 534//534 363//363
f 583//583 146//146 551//551
f 583//583 551//551 271//271
f 135//135 577//577 262//262
f 135//135 262//262 542//542
f 431//431 583//583 271//271
f 431//431 271//271 87//87
f 577//577 403//403 74//74
f 577//577 74//74 262//262
f 403//403 504//504 335//335
f 403//403 335//335 74//74
f 363//363 534//534 431//431
f 363//363 431//431 87//87
f 204//204 252//252 530//530
f 204//204 530//530 553//553
f 568//568 59//59 109//109
f 568//568 109//109 590//590
f 252//252 197//197 547//547
f 252//252 547//547 530//530
f 551//551 204//204 553//553
f 551//551 553//553 549//549
f 197//197 542//542 540//540
f 197//197 540//540 547//547
f 325//325 465//465 486//486
f 325//325 486//486 335//335
f 370//370 363//363 516//516
f 370//370 516//516 524//524
f 542//542 262//262 234//234
f 542//542 234//234 540//540
f 271//271 551//551 549//549
f 271//271 549//549 247//247
f 87//87 271//271 247//247
f 87//87 247//247 527//527
f 262//262 74//74 511//511
f 262//262 511//511 234//234
f 363//363 87//87 527//527
f 363//363 527//527 516//516
f 511//511 74//74 335//335
f 511//511 335//335 486//486
f 553//553 530//530 386//386
f 553//553 386//386 413//413
f 317//317 568//568 590//590
f 317//317 590//590 365//365
f 530//530 547//547 406//406
f 530//530 406//406 386//386
f 549//549 553//553 413//413
f 549//549 413//413 453//453
f 547//547 540//540 442//442
f 547//547 442//442 406//406
f 465//465 153//153 164//164
f 465//465 164//164 486//486
f 524//524 516//516 186//186
f 524//524 186//186 193//193
f 540//540 234//234 324//324
f 540//540 324//324 442//442
f 247//247 549//549 453//453
f 247//247 453//453 338//338
f 234//234 511//511 545//545
f 234//234 545//545 324//324
f 527//527 247//247 338//338
f 527//527 338//338 558//558
f 516//516 527//527 558//558
f 516//516 558//558 186//186
f 545//545 511//511 486//486
f 545//545 486//486 164//164
f 386//386 406//406 581//581
f 386//386 581//581 567//567
f 531//531 317//317 365//365
f 531//531 365//365 478//478
f 413//413 386//386 567//567
f 413//413 567//567 579//579
f 453//453 413//413 579//579
f 453//453 579//579 22//22
f 406//406 442//442 30//30
f 406//406 30//30 581//581
f 469//469 457//457 164//164
f 469//469 164//164 153//153
f 193//193 186//186 427//427
f 193//193 427//427 409//409
f 442//442 324//324 162//162
f 442//442 162//162 30//30
f 338//338 453//453 22//22
f 338//338 22//22 151//151
f 324//324 545//545 304//304
f 324//324 304//304 162//162
f 558//558 338//338 151//151
f 558//558 151//151 295//295
f 186//186 558//558 295//295
f 186//186 295//295 427//427
f 304//304 545//545 164//164
f 304//304 164//164 457//457
f 579//579 567//567 4//4
f 579//579 4//4 53//53
f 93//93 531//531 478//478
f 93//93 478//478 47//47
f 567//567 581//581 56//56
f 567//567 56//56 4//4
f 22//22 579//579 53//53
f 22//22 53//53 231//231
f 581//581 30//30 241//241
f 581//581 241//241 56//56
f 469//469 114//114 107//107
f 469//469 107//107 457//457
f 409//409 427//427 78//78
f 409//409 78//78 68//68
f 151//151 22//22 231//231
f 151//151 231//231 340//340
f 30//30 162//162 352//352
f 30//30 352//352 241//241
f 295//295 151//151 340//340
f 295//295 340//340 226//226
f 162//162 304//304 243//243
f 162//162 243//243 352//352
f 427//427 295//295 226//226
f 427//427 226//226 78//78
f 243//243 304//304 457//457
f 243//243 457//457 107//107
f 4//4 56//56 396//396
f 4//4 396//396 330//330
f 79//79 93//93 47//47
f 79//79 47//47 33//33
f 53//53 4//4 330//330
f 53//53 330//330 391//391
f 231//231 53//53 391//391
f 231//231 391//391 556//556
f 56//56 241//241 564//564
f 56//56 564//564 396//396
f 107//107 114//114 443//443
f 107//107 443//443 434//434
f 68//68 78//78 398//398
f 68//68 398//398 389//389
f 241//241 352//352 468//468
f 241//241 468//468 564//564
f 340//340 231//231 556//556
f 340//340 556//556 451//451
f 226//226 340//340 451//451
f 226//226 451//451 354//354
f 352//352 243//243 367//367
f 352//352 367//367 468//468
f 78//78 226//226 354//354
f 78//78 354//354 398//398
f 367//367 243//243 107//107
f 367//367 107//107 434//434
f 330//330 396//396 360//360
f 330//330 360//360 376//376
f 476//476 79//79 33//33
f 476//476 33//33 415//415
f 391//391 330//330 376//376
f 391//391 376//376 356//356
f 396//396 564//564 195//195
f 396//396 195//195 360//360
f 556//556 391//391 356//356
f 556//556 356//356 189//189
f 443//443 263//263 255//255
f 443//443 255//255 434//434
f 389//389 398//398 237//237
f 389//389 237//237 229//229
f 451//451 556//556 189//189
f 451//451 189//189 98//98
f 564//564 468//468 112//112
f 564//564 112//112 195//195
f 354//354 451//451 98//98
f 354//354 98//98 128//128
f 468//468 367//367 139//139
f 468//468 139//139 112//112
f 367//367 434//434 255//255
f 367//367 255//255 139//139
f 237//237 398//398 354//354
f 237//237 354//354 128//128
f 376//376 360//360 425//425
f 376//376 425//425 42//42
f 258//258 287//287 476//476
f 258//258 476//476 415//415
f 356//356 376//376 42//42
f 356//356 42//42 418//418
f 360//360 195//195 214//214
f 360//360 214//214 425//425
f 189//189 356//356 418//418
f 189//189 418//418 199//199
f 350//350 255//255 263//263
f 350//350 263//263 357//357
f 229//229 237//237 322//322
f 229//229 322//322 315//315
f 98//98 189//189 199//199
f 98//98 199//199 132//132
f 195//195 112//112 142//142
f 195//195 142//142 214//214
f 112//112 139//139 157//157
f 112//112 157//157 142//142
f 128//128 98//98 132//132
f 128//128 132//132 144//144
f 237//237 128//128 144//144
f 237//237 144//144 322//322
f 157//157 139//139 255//255
f 157//157 255//255 350//350
f 42//42 425//425 283//283
f 42//42 283//283 266//266
f 258//258 171//171 183//183
f 258//258 183//183 5//5
f 258//258 5//5 119//119
f 258//258 119//119 96//96
f 258//258 96//96 72//72
f 258//258 72//72 287//287
f 208//208 287//287 72//72
f 208//208 72//72 101//101
f 208//208 101//101 122//122
f 208//208 122//122 7//7
f 208//208 7//7 190//190
f 72//72 305//305 294//294
f 72//72 294//294 101//101
f 101//101 294//294 259//259
f 101//101 259//259 122//122
f 187//187 7//7 122//122
f 187//187 122//122 259//259
f 91//91 302//302 190//190
f 91//91 190//190 7//7
f 91//91 7//7 187//187
f 182//182 5//5 183//183
f 182//182 183//183 296//296
f 182//182 296//296 84//84
f 5//5 182//182 253//253
f 5//5 253//253 119//119
f 290//290 96//96 119//119
f 290//290 119//119 253//253
f 305//305 72//72 96//96
f 305//305 96//96 290//290
f 418//418 42//42 266//266
f 418//418 266//266 277//277
f 277//277 168//168 199//199
f 277//277 199//199 418//418
f 175//175 283//283 425//425
f 175//175 425//425 214//214
f 508//508 350//350 357//357
f 508//508 357//357 520//520
f 315//315 322//322 472//472
f 315//315 472//472 459//459
f 132//132 199//199 168//168
f 132//132 168//168 25//25
f 214//214 142//142 35//35
f 214//214 35//35 175//175
f 144//144 132//132 25//25
f 144//144 25//25 310//310
f 142//142 157//157 328//328
f 142//142 328//328 35//35
f 157//157 350//350 508//508
f 157//157 508//508 328//328
f 472//472 322//322 144//144
f 472//472 144//144 310//310
f 332//332 266//266 283//283
f 332//332 283//283 148//148
f 171//171 13//13 27//27
f 171//171 27//27 411//411
f 171//171 411//411 296//296
f 171//171 296//296 183//183
f 208//208 190//190 302//302
f 208//208 302//302 429//429
f 208//208 429//429 37//37
f 208//208 37//37 50//50
f 123//123 105//105 294//294
f 123//123 294//294 305//305
f 297//297 332//332 148//148
f 297//297 148//148 275//275
f 165//165 344//344 585//585
f 585//585 344//344 559//559
f 585//585 559//559 383//383
f 383//383 559//559 166//166
f 383//383 166//166 11//11
f 575//575 440//440 81//81
f 81//81 440//440 299//299
f 81//81 299//299 559//559
f 559//559 299//299 166//166
f 123//123 100//100 274//274
f 274//274 100//100 31//31
f 274//274 31//31 207//207
f 207//207 31//31 575//575
f 207//207 575//575 81//81
f 454//454 578//578 217//217
f 217//217 578//578 38//38
f 217//217 38//38 275//275
f 275//275 38//38 105//105
f 275//275 105//105 297//297
f 297//297 105//105 123//123
f 297//297 123//123 274//274
f 92//92 570//570 180//180
f 92//92 180//180 307//307
f 92//92 307//307 454//454
f 92//92 454//454 217//217
f 250//250 383//383 11//11
f 250//250 11//11 522//522
f 250//250 522//522 372//372
f 250//250 372//372 130//130
f 286//286 245//245 49//49
f 286//286 49//49 130//130
f 286//286 130//130 372//372
f 377//377 136//136 289//289
f 289//289 136//136 54//54
f 289//289 54//54 248//248
f 248//248 54//54 26//26
f 248//248 26//26 224//224
f 224//224 26//26 49//49
f 224//224 49//49 245//245
f 535//535 20//20 260//260
f 535//535 260//260 136//136
f 535//535 136//136 377//377
f 181//181 2//2 361//361
f 361//361 2//2 393//393
f 361//361 393//393 570//570
f 570//570 393//393 260//260
f 570//570 260//260 180//180
f 180//180 260//260 20//20
f 105//105 38//38 259//259
f 105//105 259//259 294//294
f 574//574 217//217 275//275
f 574//574 275//275 148//148
f 38//38 578//578 187//187
f 38//38 187//187 259//259
f 394//394 92//92 217//217
f 394//394 217//217 574//574
f 578//578 454//454 91//91
f 578//578 91//91 187//187
f 92//92 394//394 15//15
f 92//92 15//15 570//570
f 1//1 91//91 454//454
f 1//1 454//454 307//307
f 429//429 302//302 91//91
f 429//429 91//91 1//1
f 570//570 15//15 455//455
f 570//570 455//455 361//361
f 180//180 490//490 1//1
f 180//180 1//1 307//307
f 506//506 181//181 361//361
f 506//506 361//361 455//455
f 37//37 429//429 1//1
f 37//37 1//1 490//490
f 299//299 588//588 475//475
f 299//299 475//475 166//166
f 165//165 487//487 436//436
f 165//165 436//436 344//344
f 475//475 588//588 411//411
f 475//475 411//411 27//27
f 588//588 299//299 440//440
f 588//588 440//440 84//84
f 296//296 411//411 588//588
f 296//296 588//588 84//84
f 559//559 344//344 436//436
f 559//559 436//436 9//9
f 182//182 84//84 440//440
f 182//182 440//440 575//575
f 387//387 81//81 559//559
f 387//387 559//559 9//9
f 31//31 253//253 182//182
f 31//31 182//182 575//575
f 573//573 207//207 81//81
f 573//573 81//81 387//387
f 253//253 31//31 100//100
f 253//253 100//100 290//290
f 207//207 573//573 137//137
f 207//207 137//137 274//274
f 290//290 100//100 123//123
f 290//290 123//123 305//305
f 332//332 297//297 274//274
f 332//332 274//274 137//137
f 137//137 277//277 266//266
f 137//137 266//266 332//332
f 168//168 277//277 137//137
f 168//168 137//137 573//573
f 283//283 175//175 574//574
f 283//283 574//574 148//148
f 312//312 508//508 520//520
f 312//312 520//520 319//319
f 472//472 300//300 293//293
f 472//472 293//293 459//459
f 35//35 394//394 574//574
f 35//35 574//574 175//175
f 387//387 25//25 168//168
f 387//387 168//168 573//573
f 328//328 15//15 394//394
f 328//328 394//394 35//35
f 9//9 310//310 25//25
f 9//9 25//25 387//387
f 300//300 472//472 310//310
f 300//300 310//310 9//9
f 300//300 9//9 436//436
f 300//300 436//436 487//487
f 312//312 506//506 455//455
f 312//312 455//455 15//15
f 312//312 15//15 328//328
f 312//312 328//328 508//508
# 1188 faces, 0 coords texture

# End of File
